<svg width="39" height="177" viewBox="0 0 39 177" fill="none" xmlns="http://www.w3.org/2000/svg">
<path d="M18.2161 4.89219C19.7761 18.0122 27.5361 55.0722 25.8361 82.6922C24.1361 110.332 10.4761 155.872 7.99609 170.672M15.4161 3.99219C16.8961 16.2922 24.9361 51.0122 24.5161 79.1122C24.0761 107.212 14.9361 156.832 12.8761 172.552" stroke="#F6F5F5" stroke-width="8" stroke-linecap="round"/>
<path d="M3.87695 127.473C10.077 139.893 10.477 145.853 12.877 172.553ZM3.87695 127.473C7.47695 140.073 6.59695 147.213 12.877 172.553Z" stroke="#F6F5F5" stroke-width="8" stroke-linecap="round"/>
<path d="M34.957 132.254C33.777 143.574 26.857 148.394 12.877 172.554ZM34.957 132.254C31.077 143.634 22.737 149.614 12.877 172.554Z" stroke="#F6F5F5" stroke-width="8" stroke-linecap="round"/>
</svg>
