<svg width="40" height="177" viewBox="0 0 40 177" fill="none" xmlns="http://www.w3.org/2000/svg">
<path d="M18.3391 4.9C19.8991 18.02 27.6591 55.08 25.9591 82.7C24.2591 110.34 10.5991 155.88 8.11914 170.68M15.5391 4C17.0191 16.3 25.0591 51.02 24.6391 79.12C24.1991 107.22 15.0591 156.84 12.9991 172.56" stroke="#1E1E1E" stroke-width="8" stroke-linecap="round"/>
<path d="M4 127.48C10.2 139.9 10.6 145.86 13 172.56ZM4 127.48C7.6 140.08 6.72 147.22 13 172.56Z" stroke="#1E1E1E" stroke-width="8" stroke-linecap="round"/>
<path d="M35.08 132.262C33.9 143.582 26.98 148.402 13 172.562ZM35.08 132.262C31.2 143.642 22.86 149.622 13 172.562Z" stroke="#1E1E1E" stroke-width="8" stroke-linecap="round"/>
</svg>
