<svg width="602" height="602" viewBox="0 0 602 602" fill="none" xmlns="http://www.w3.org/2000/svg">
<path d="M533.371 584.229C534.164 584.529 535.457 584.666 537.251 584.639C543.064 584.539 561.897 584.519 593.751 584.579C595.537 584.586 597.034 584.906 598.241 585.539C601.821 587.429 602.821 592.689 601.251 595.999C599.657 599.339 596.907 601.009 593.001 601.009C399.574 600.982 263.991 601.039 186.251 601.179C101.384 601.339 43.2173 601.486 11.7506 601.619C8.35727 601.632 6.0506 601.306 4.8306 600.639C-2.7394 596.479 -0.00940418 585.159 8.7306 585.079C24.5773 584.946 44.5006 584.932 68.5006 585.039C69.2806 585.039 69.9239 584.866 70.4306 584.519C70.536 584.447 70.6201 584.349 70.6742 584.233C70.7284 584.118 70.7504 583.99 70.7382 583.864C70.7259 583.737 70.6797 583.616 70.6045 583.513C70.5293 583.41 70.4277 583.329 70.3106 583.279C50.0606 574.389 31.7606 560.779 21.7106 540.829C16.8973 531.269 14.3039 520.119 13.9306 507.379C13.4906 492.199 16.1106 478.016 21.7906 464.829C27.1706 452.339 31.9206 441.929 36.7106 429.819C51.9039 391.479 63.8406 360.542 72.5206 337.009C82.1006 311.039 97.6806 289.489 121.831 276.299C125.591 274.246 130.814 271.919 137.501 269.319C147.931 265.259 156.981 261.919 165.291 257.339C165.569 257.185 165.78 256.934 165.882 256.634C165.984 256.334 165.969 256.007 165.841 255.719C161.901 246.739 158.471 236.929 157.491 227.519C156.631 219.246 156.781 210.736 157.941 201.989C159.367 191.222 161.237 181.352 163.551 172.379C170.001 147.369 178.951 122.459 190.921 97.9491C212.061 54.6691 246.501 18.2191 291.761 1.74907C297.121 -0.197593 302.371 -0.394256 307.511 1.15908C330.661 8.17908 353.071 23.7091 370.181 40.8291C393.231 63.8791 409.161 92.3191 421.471 122.549C429.344 141.876 435.607 160.852 440.261 179.479C443.494 192.439 445.314 204.116 445.721 214.509C446.027 222.409 445.051 230.729 442.791 239.469C441.491 244.479 439.161 249.519 436.971 254.699C436.774 255.16 436.755 255.678 436.917 256.153C437.08 256.628 437.412 257.025 437.851 257.269C446.601 262.109 454.361 264.779 471.911 272.119C499.421 283.639 518.621 305.809 529.091 333.369C551.257 391.756 563.371 423.439 565.431 428.419C571.351 442.769 573.951 448.829 580.281 463.459C585.251 474.949 588.631 487.019 588.981 499.599C589.227 508.566 588.627 516.856 587.181 524.469C585.431 533.699 580.401 544.059 574.661 551.629C564.021 565.656 550.251 576.056 533.351 582.829C533.21 582.886 533.09 582.983 533.005 583.109C532.921 583.236 532.878 583.384 532.88 583.536C532.882 583.688 532.93 583.835 533.018 583.959C533.105 584.082 533.228 584.177 533.371 584.229ZM369.521 303.809C371.534 303.196 373.987 302.052 376.881 300.379C391.001 292.206 403.007 281.409 412.901 267.989C424.541 252.189 429.931 233.956 429.071 213.289C427.711 180.649 400.291 155.889 373.361 141.649C350.307 129.462 325.834 123.462 299.941 123.649C271.547 123.842 245.784 130.869 222.651 144.729C199.331 158.699 176.461 181.449 173.461 210.089C169.821 244.759 188.141 273.789 214.971 294.019C219.924 297.752 225.267 300.646 231.001 302.699C231.072 302.726 231.15 302.728 231.221 302.703C231.293 302.678 231.353 302.629 231.393 302.564C231.433 302.498 231.45 302.42 231.44 302.343C231.43 302.265 231.395 302.194 231.341 302.139C219.607 291.159 209.581 278.946 201.261 265.499C197.547 259.492 194.401 253.392 191.821 247.199C185.431 231.819 184.381 212.479 192.751 197.519C208.541 169.319 242.301 151.219 273.081 145.059C310.121 137.639 348.101 145.549 379.561 166.169C391.841 174.209 402.331 184.529 409.751 197.629C419.601 214.999 416.691 234.619 408.381 251.659C399.661 269.532 388.181 285.476 373.941 299.489C372.554 300.856 371.001 302.132 369.281 303.319C369.232 303.359 369.197 303.414 369.184 303.476C369.17 303.538 369.178 303.603 369.206 303.66C369.234 303.716 369.28 303.762 369.337 303.789C369.394 303.816 369.459 303.823 369.521 303.809ZM301.351 584.949C384.091 584.942 437.224 585.009 460.751 585.149C465.364 585.182 468.581 584.906 470.401 584.319C478.361 581.789 481.691 575.009 482.491 566.909C493.064 460.156 499.407 396.269 501.521 375.249C501.921 371.282 501.897 367.962 501.451 365.289C499.931 356.199 491.851 349.279 482.471 349.089C477.524 348.989 474.284 348.942 472.751 348.949C448.731 348.996 391.591 349.019 301.331 349.019C211.077 349.026 153.941 349.009 129.921 348.969C128.387 348.962 125.147 349.009 120.201 349.109C110.821 349.299 102.741 356.219 101.221 365.309C100.774 367.982 100.751 371.302 101.151 375.269C103.264 396.289 109.614 460.176 120.201 566.929C121.001 575.029 124.331 581.809 132.291 584.339C134.111 584.926 137.327 585.202 141.941 585.169C165.467 585.022 218.604 584.949 301.351 584.949ZM502.141 505.239C502.129 505.331 502.143 505.424 502.181 505.509C502.219 505.593 502.28 505.665 502.357 505.717C502.433 505.769 502.523 505.798 502.615 505.802C502.708 505.806 502.8 505.784 502.881 505.739C514.387 499.199 526.611 495.086 539.551 493.399C539.746 493.373 539.931 493.295 540.087 493.175C540.243 493.055 540.366 492.896 540.441 492.714C540.517 492.532 540.544 492.333 540.519 492.138C540.495 491.942 540.419 491.756 540.301 491.599C539.414 490.399 538.267 489.526 536.861 488.979C528.611 485.719 518.371 487.009 510.011 490.339C507.064 491.512 505.001 492.966 503.821 494.699C503.532 495.113 503.35 495.594 503.291 496.099L502.141 505.239ZM100.141 505.289L99.0106 496.149C98.9516 495.644 98.7695 495.163 98.4806 494.749C97.3073 493.016 95.2506 491.559 92.3106 490.379C83.9606 487.039 73.7306 485.719 65.4706 488.959C64.0639 489.506 62.9173 490.376 62.0306 491.569C61.9119 491.727 61.8365 491.912 61.8118 492.108C61.7871 492.303 61.814 492.502 61.8898 492.684C61.9656 492.866 62.0877 493.025 62.244 493.145C62.4003 493.265 62.5853 493.343 62.7806 493.369C75.7073 495.089 87.9139 499.229 99.4006 505.789C99.4814 505.834 99.5732 505.856 99.6657 505.852C99.7583 505.848 99.8479 505.819 99.9246 505.767C100.001 505.715 100.062 505.643 100.1 505.559C100.138 505.474 100.152 505.381 100.141 505.289Z" fill="black"/>
<path d="M369.521 303.809C369.459 303.823 369.394 303.816 369.337 303.789C369.28 303.762 369.233 303.716 369.206 303.659C369.178 303.602 369.17 303.538 369.184 303.476C369.197 303.414 369.231 303.359 369.281 303.319C371.001 302.132 372.554 300.855 373.94 299.489C388.18 285.475 399.66 269.532 408.38 251.659C416.69 234.619 419.6 214.999 409.75 197.629C402.33 184.529 391.84 174.209 379.56 166.169C348.1 145.549 310.12 137.639 273.08 145.059C242.3 151.219 208.54 169.319 192.75 197.519C184.38 212.479 185.43 231.819 191.82 247.199C194.4 253.392 197.547 259.492 201.26 265.499C209.58 278.945 219.607 291.159 231.34 302.139C231.395 302.193 231.43 302.265 231.44 302.342C231.449 302.42 231.433 302.498 231.393 302.563C231.353 302.629 231.293 302.678 231.221 302.703C231.15 302.727 231.072 302.726 231 302.699C225.267 300.645 219.924 297.752 214.97 294.019C188.14 273.789 169.82 244.759 173.46 210.089C176.46 181.449 199.33 158.699 222.65 144.729C245.784 130.869 271.547 123.842 299.94 123.649C325.834 123.462 350.307 129.462 373.36 141.649C400.29 155.889 427.71 180.649 429.07 213.289C429.93 233.955 424.541 252.189 412.901 267.989C403.007 281.409 391 292.205 376.88 300.379C373.987 302.052 371.534 303.195 369.521 303.809Z" fill="white"/>
<path d="M301.331 349.02C391.591 349.02 448.731 348.997 472.751 348.95C474.284 348.943 477.524 348.99 482.471 349.09C491.851 349.28 499.931 356.2 501.451 365.29C501.897 367.963 501.921 371.283 501.521 375.25C499.407 396.27 493.064 460.156 482.491 566.91C481.691 575.01 478.361 581.79 470.401 584.32C468.581 584.907 465.364 585.183 460.751 585.15C437.224 585.01 384.091 584.943 301.351 584.95C218.604 584.95 165.467 585.023 141.941 585.17C137.327 585.203 134.111 584.927 132.291 584.34C124.331 581.81 121.001 575.03 120.201 566.93C109.614 460.176 103.264 396.29 101.151 375.27C100.751 371.303 100.774 367.983 101.221 365.31C102.741 356.22 110.821 349.3 120.201 349.11C125.147 349.01 128.387 348.963 129.921 348.97C153.941 349.01 211.077 349.026 301.331 349.02ZM304.101 425.45C301.131 429.01 298.451 435.28 299.341 440.47C299.387 440.74 299.533 440.983 299.749 441.152C299.966 441.32 300.237 441.401 300.511 441.38C306.857 440.893 311.711 438.64 315.071 434.62C318.431 430.6 319.787 425.423 319.141 419.09C319.113 418.818 318.985 418.565 318.782 418.382C318.579 418.199 318.314 418.098 318.041 418.1C312.771 418.15 307.071 421.9 304.101 425.45ZM335.081 450.93C335.205 450.795 335.3 450.636 335.36 450.463C335.42 450.289 335.444 450.106 335.43 449.924C335.416 449.742 335.364 449.565 335.278 449.404C335.192 449.243 335.074 449.102 334.931 448.99C326.837 442.71 317.831 441.23 307.911 444.55C305.151 445.476 302.664 446.553 300.451 447.78C300.281 447.872 300.092 447.921 299.898 447.923C299.705 447.925 299.513 447.879 299.341 447.79C296.461 446.26 293.621 444.34 290.411 443.59C272.981 439.49 262.371 454.18 262.001 470.18C261.721 482.56 266.441 492.89 273.651 503.15C277.061 508.01 281.971 512.98 288.181 511.63C288.754 511.503 290.681 510.943 293.961 509.95C300.551 507.96 306.581 509.52 313.921 511.55C320.911 513.49 325.781 509.65 329.461 504.2C332.554 499.607 334.984 494.647 336.751 489.32C336.826 489.1 336.826 488.861 336.752 488.64C336.678 488.42 336.533 488.23 336.341 488.1C324.601 480.17 321.741 462.99 332.701 453.17C333.874 452.116 334.667 451.37 335.081 450.93Z" fill="white"/>
<path d="M315.069 434.622C311.709 438.642 306.856 440.895 300.509 441.382C300.236 441.403 299.965 441.322 299.748 441.153C299.532 440.985 299.386 440.742 299.339 440.472C298.449 435.282 301.129 429.012 304.099 425.452C307.069 421.902 312.769 418.152 318.039 418.102C318.313 418.1 318.577 418.201 318.781 418.384C318.984 418.567 319.112 418.819 319.139 419.092C319.786 425.425 318.429 430.602 315.069 434.622Z" fill="black"/>
<path d="M335.08 450.93C334.667 451.37 333.873 452.117 332.7 453.17C321.74 462.99 324.6 480.17 336.34 488.1C336.533 488.231 336.677 488.421 336.751 488.641C336.826 488.861 336.825 489.1 336.75 489.32C334.983 494.647 332.553 499.607 329.46 504.2C325.78 509.65 320.91 513.49 313.92 511.55C306.58 509.52 300.55 507.96 293.96 509.95C290.68 510.944 288.753 511.504 288.18 511.63C281.97 512.98 277.06 508.01 273.65 503.15C266.44 492.89 261.72 482.56 262 470.18C262.37 454.18 272.98 439.49 290.41 443.59C293.62 444.34 296.46 446.26 299.34 447.79C299.513 447.879 299.704 447.925 299.897 447.923C300.091 447.922 300.281 447.873 300.45 447.78C302.663 446.554 305.15 445.477 307.91 444.55C317.83 441.23 326.837 442.71 334.93 448.99C335.073 449.103 335.192 449.244 335.278 449.404C335.363 449.565 335.415 449.742 335.429 449.924C335.443 450.107 335.419 450.29 335.359 450.463C335.299 450.636 335.204 450.795 335.08 450.93Z" fill="black"/>
<path d="M502.141 505.239L503.291 496.099C503.35 495.593 503.532 495.112 503.821 494.699C505.001 492.965 507.064 491.512 510.011 490.339C518.371 487.009 528.611 485.719 536.861 488.979C538.267 489.525 539.414 490.399 540.301 491.599C540.419 491.756 540.495 491.942 540.52 492.137C540.544 492.333 540.517 492.532 540.442 492.713C540.366 492.895 540.244 493.054 540.087 493.175C539.931 493.295 539.746 493.372 539.551 493.399C526.611 495.085 514.387 499.199 502.881 505.739C502.8 505.784 502.708 505.806 502.616 505.802C502.523 505.798 502.434 505.768 502.357 505.716C502.28 505.665 502.219 505.592 502.181 505.508C502.143 505.424 502.129 505.33 502.141 505.239Z" fill="white"/>
<path d="M100.14 505.289C100.152 505.381 100.138 505.475 100.1 505.559C100.062 505.643 100.001 505.715 99.9245 505.767C99.8477 505.819 99.7581 505.849 99.6656 505.853C99.5731 505.856 99.4813 505.835 99.4005 505.789C87.9138 499.229 75.7071 495.089 62.7805 493.369C62.5851 493.343 62.4002 493.266 62.2439 493.145C62.0876 493.025 61.9655 492.866 61.8897 492.684C61.8138 492.502 61.7869 492.304 61.8116 492.108C61.8363 491.913 61.9118 491.727 62.0305 491.569C62.9171 490.376 64.0638 489.506 65.4705 488.959C73.7305 485.719 83.9605 487.039 92.3105 490.379C95.2505 491.559 97.3072 493.016 98.4805 494.749C98.7694 495.163 98.9515 495.644 99.0105 496.149L100.14 505.289Z" fill="white"/>
</svg>
